<?xml version="1.0" standalone="no"?>
<!DOCTYPE svg PUBLIC "-//W3C//DTD SVG 20010904//EN"
 "http://www.w3.org/TR/2001/REC-SVG-20010904/DTD/svg10.dtd">
<svg version="1.0" xmlns="http://www.w3.org/2000/svg"
 width="1141.000000pt" height="718.000000pt" viewBox="0 0 1141.000000 718.000000"
 preserveAspectRatio="xMidYMid meet">

<g transform="translate(0.000000,718.000000) scale(0.100000,-0.100000)"
fill="#000000" stroke="none">
<path d="M2150 7170 c0 -5 16 -28 36 -50 26 -29 34 -45 29 -60 -5 -16 -1 -21
22 -26 16 -3 49 -25 74 -48 84 -78 213 -163 339 -224 153 -73 181 -82 251 -82
103 1 168 38 300 173 47 48 91 87 97 87 6 0 23 24 37 53 14 28 40 68 57 88 42
47 62 72 72 87 6 9 -140 12 -653 12 -433 0 -661 -3 -661 -10z"/>
<path d="M8948 7169 c20 -6 60 -6 105 -1 l72 9 -105 1 c-82 0 -98 -2 -72 -9z"/>
<path d="M9502 7168 c3 -7 23 -18 46 -25 35 -10 51 -9 92 3 82 24 70 34 -40
34 -76 0 -101 -3 -98 -12z"/>
<path d="M9820 7166 c0 -18 44 -35 95 -36 109 -4 111 -4 100 29 -6 19 -14 21
-101 21 -73 0 -94 -3 -94 -14z"/>
<path d="M10196 7153 c9 -36 6 -34 56 -44 64 -12 111 -10 132 6 17 13 18 18 6
40 -13 24 -17 25 -107 25 l-93 0 6 -27z"/>
<path d="M10560 7153 c0 -41 13 -55 48 -52 16 2 41 -3 55 -10 30 -16 57 -9 57
16 0 10 7 27 15 37 8 11 15 23 15 28 0 4 -43 8 -95 8 l-95 0 0 -27z"/>
<path d="M10920 7141 c0 -39 23 -76 41 -66 5 3 27 1 50 -5 52 -14 60 -7 63 59
l3 51 -78 0 -79 0 0 -39z"/>
<path d="M11265 7153 c4 -16 7 -42 8 -60 2 -41 5 -43 76 -58 l61 -13 0 79 0
79 -76 0 -76 0 7 -27z"/>
<path d="M3833 6883 c9 -2 25 -2 35 0 9 3 1 5 -18 5 -19 0 -27 -2 -17 -5z"/>
<path d="M3405 6750 c-3 -5 3 -10 14 -10 12 0 21 5 21 10 0 6 -6 10 -14 10 -8
0 -18 -4 -21 -10z"/>
<path d="M3305 6719 c-12 -19 2 -21 32 -5 l28 15 -27 1 c-15 0 -30 -5 -33 -11z"/>
<path d="M3190 6670 c-9 -6 -10 -10 -3 -10 6 0 15 5 18 10 8 12 4 12 -15 0z"/>
<path d="M3108 6623 c7 -3 16 -2 19 1 4 3 -2 6 -13 5 -11 0 -14 -3 -6 -6z"/>
<path d="M3015 6590 c-8 -13 25 -13 45 0 12 8 9 10 -12 10 -15 0 -30 -4 -33
-10z"/>
<path d="M2808 6463 c-10 -2 -18 -8 -18 -13 0 -5 -9 -12 -20 -15 -11 -3 -20
-13 -20 -21 0 -22 13 -17 50 21 19 19 32 34 29 34 -2 -1 -12 -3 -21 -6z"/>
<path d="M3589 5599 c-10 -6 -7 -9 14 -9 29 0 35 5 14 13 -8 3 -20 1 -28 -4z"/>
<path d="M3367 5582 c-10 -10 -17 -23 -17 -28 0 -11 45 -54 56 -54 3 0 19 -11
36 -25 33 -28 58 -32 58 -10 0 8 -6 15 -13 15 -8 0 -22 9 -33 21 -10 12 -31
28 -47 35 -15 8 -25 19 -21 25 4 7 10 6 19 -1 7 -6 17 -9 21 -8 8 3 82 -38 94
-51 12 -14 61 -34 67 -28 3 4 -10 14 -30 22 -20 8 -46 26 -59 39 -23 24 -91
66 -107 66 -4 0 -15 -8 -24 -18z"/>
<path d="M3345 5440 c3 -5 13 -10 21 -10 8 0 14 5 14 10 0 6 -9 10 -21 10 -11
0 -17 -4 -14 -10z"/>
<path d="M3542 5419 c8 -23 36 -35 50 -21 14 14 11 17 -25 26 -21 5 -28 3 -25
-5z"/>
<path d="M3663 5423 c9 -2 17 -8 17 -13 0 -5 8 -11 18 -14 9 -3 29 -16 43 -30
30 -28 73 -52 68 -38 -8 21 -110 93 -137 96 -15 2 -19 1 -9 -1z"/>
<path d="M1196 5354 c-5 -14 -4 -15 9 -4 17 14 19 20 6 20 -5 0 -12 -7 -15
-16z"/>
<path d="M3665 5310 c10 -11 23 -20 28 -20 6 0 2 9 -8 20 -10 11 -23 20 -28
20 -6 0 -2 -9 8 -20z"/>
<path d="M1102 5274 c-12 -15 -21 -28 -19 -30 5 -6 47 35 47 46 0 14 -2 13
-28 -16z"/>
<path d="M3916 5235 c4 -8 16 -15 28 -15 21 1 21 1 2 15 -25 19 -37 19 -30 0z"/>
<path d="M4040 5174 c0 -8 5 -12 10 -9 6 4 8 11 5 16 -9 14 -15 11 -15 -7z"/>
<path d="M4190 5075 c0 -2 14 -11 30 -20 33 -17 38 -14 14 9 -14 15 -44 22
-44 11z"/>
<path d="M4408 4963 c12 -2 30 -2 40 0 9 3 -1 5 -23 4 -22 0 -30 -2 -17 -4z"/>
<path d="M715 4899 c-4 -6 -5 -12 -2 -15 2 -3 7 2 10 11 7 17 1 20 -8 4z"/>
<path d="M591 4788 c-14 -23 -14 -23 8 -4 22 20 25 26 13 26 -4 0 -13 -10 -21
-22z"/>
<path d="M5022 4778 c2 -6 10 -14 16 -16 7 -2 10 2 6 12 -7 18 -28 22 -22 4z"/>
<path d="M5070 4770 c0 -5 11 -10 25 -10 14 0 25 5 25 10 0 6 -11 10 -25 10
-14 0 -25 -4 -25 -10z"/>
<path d="M5188 4773 c6 -2 18 -2 25 0 6 3 1 5 -13 5 -14 0 -19 -2 -12 -5z"/>
<path d="M4990 4759 c0 -5 5 -7 10 -4 6 3 10 8 10 11 0 2 -4 4 -10 4 -5 0 -10
-5 -10 -11z"/>
<path d="M535 4740 c-10 -11 -14 -20 -8 -20 5 0 18 9 28 20 10 11 14 20 8 20
-5 0 -18 -9 -28 -20z"/>
<path d="M7558 4673 c7 -3 16 -2 19 1 4 3 -2 6 -13 5 -11 0 -14 -3 -6 -6z"/>
<path d="M7279 4605 c-1 -3 -2 -18 -3 -34 l-1 -30 23 21 c27 27 28 48 2 48
-11 0 -21 -2 -21 -5z"/>
<path d="M7630 4580 c0 -5 5 -10 11 -10 5 0 7 5 4 10 -3 6 -8 10 -11 10 -2 0
-4 -4 -4 -10z"/>
<path d="M7278 4383 c6 -2 18 -2 25 0 6 3 1 5 -13 5 -14 0 -19 -2 -12 -5z"/>
<path d="M5020 4340 c0 -12 8 -12 35 0 18 8 17 9 -7 9 -16 1 -28 -3 -28 -9z"/>
<path d="M5098 4343 c7 -3 16 -2 19 1 4 3 -2 6 -13 5 -11 0 -14 -3 -6 -6z"/>
<path d="M5248 4343 c7 -3 16 -2 19 1 4 3 -2 6 -13 5 -11 0 -14 -3 -6 -6z"/>
<path d="M3705 4160 c-3 -5 3 -10 14 -10 11 0 23 5 26 10 3 6 -3 10 -14 10
-11 0 -23 -4 -26 -10z"/>
<path d="M3588 4153 c17 -2 47 -2 65 0 17 2 3 4 -33 4 -36 0 -50 -2 -32 -4z"/>
<path d="M3342 4140 c-40 -5 -76 -11 -80 -15 -4 -4 22 -4 58 0 36 4 101 9 144
11 44 2 81 6 84 9 7 7 -118 4 -206 -5z"/>
<path d="M9238 3929 c-20 -13 13 -20 47 -11 l30 9 -32 5 c-18 2 -38 1 -45 -3z"/>
<path d="M4075 3629 c-11 -17 1 -21 34 -14 17 4 29 11 25 16 -7 12 -51 11 -59
-2z"/>
<path d="M3775 3600 c3 -5 10 -10 16 -10 5 0 9 5 9 10 0 6 -7 10 -16 10 -8 0
-12 -4 -9 -10z"/>
<path d="M3873 3603 c15 -2 39 -2 55 0 15 2 2 4 -28 4 -30 0 -43 -2 -27 -4z"/>
<path d="M3658 3583 c7 -3 16 -2 19 1 4 3 -2 6 -13 5 -11 0 -14 -3 -6 -6z"/>
<path d="M3497 3573 c18 -2 50 -2 70 0 21 2 7 4 -32 4 -38 0 -55 -2 -38 -4z"/>
<path d="M3368 3563 c-10 -2 -18 -9 -18 -14 0 -9 36 -4 75 12 16 6 15 8 -10 7
-16 0 -38 -2 -47 -5z"/>
<path d="M3240 3540 c-37 -8 -36 -8 32 -14 6 -1 13 5 16 12 4 13 4 13 -48 2z"/>
<path d="M3095 3523 c-71 -5 -100 -12 -88 -24 6 -6 42 -2 99 10 88 19 87 21
-11 14z"/>
<path d="M9498 3453 c7 -3 16 -2 19 1 4 3 -2 6 -13 5 -11 0 -14 -3 -6 -6z"/>
<path d="M1040 2322 c0 -7 -6 -12 -14 -12 -8 0 -18 -4 -21 -10 -9 -15 8 -12
31 4 10 8 16 18 11 22 -4 4 -7 2 -7 -4z"/>
<path d="M870 2190 c-9 -6 -10 -10 -3 -10 6 0 15 5 18 10 8 12 4 12 -15 0z"/>
<path d="M766 1638 c-22 -44 -14 -45 18 -3 20 25 23 35 12 35 -8 0 -22 -14
-30 -32z"/>
<path d="M699 1571 c-13 -11 -20 -23 -16 -27 4 -4 17 2 29 14 28 28 18 38 -13
13z"/>
<path d="M640 1500 c0 -5 4 -10 9 -10 6 0 13 5 16 10 3 6 -1 10 -9 10 -9 0
-16 -4 -16 -10z"/>
<path d="M499 1473 c-18 -20 -19 -23 -4 -13 32 24 47 40 37 40 -4 0 -19 -12
-33 -27z"/>
<path d="M389 1370 c-19 -16 -29 -30 -23 -30 5 0 23 14 39 30 37 39 28 39 -16
0z"/>
<path d="M426 1258 c-41 -43 -25 -46 21 -4 21 20 32 35 23 35 -8 -1 -28 -14
-44 -31z"/>
<path d="M351 1184 c-7 -8 -10 -18 -7 -21 7 -7 36 16 36 28 0 13 -13 10 -29
-7z"/>
<path d="M515 1180 c-3 -6 1 -7 9 -4 18 7 21 14 7 14 -6 0 -13 -4 -16 -10z"/>
<path d="M125 1150 c-3 -5 -1 -10 4 -10 6 0 11 5 11 10 0 6 -2 10 -4 10 -3 0
-8 -4 -11 -10z"/>
</g>
</svg>
